<?xml version="1.0" standalone="no"?><!DOCTYPE svg PUBLIC "-//W3C//DTD SVG 1.1//EN" "http://www.w3.org/Graphics/SVG/1.1/DTD/svg11.dtd"><svg t="1713622226461" class="icon" viewBox="0 0 1024 1024" version="1.1" xmlns="http://www.w3.org/2000/svg" p-id="56782" xmlns:xlink="http://www.w3.org/1999/xlink" width="300" height="300"><path d="M259.552 512c0-65.408 53.024-118.432 118.432-118.432s118.432 53.024 118.432 118.432c0 65.408-53.024 118.432-118.432 118.432s-118.432-53.024-118.432-118.432zM512 0c-282.784 0-512 229.216-512 512s229.216 512 512 512c282.752 0 512-229.216 512-512s-229.216-512-512-512zM379.392 959.296c-153.952-89.568-257.472-256.32-257.472-447.296s103.52-357.696 257.472-447.296c154.016 89.568 257.6 256.288 257.6 447.296s-103.584 357.728-257.6 447.296z" fill="#2d3d9f" p-id="56783"></path></svg>